# xmcd
# 
# Track frame offsets:
#     150
#     15646
#     34219
#     50073
#     65257
# 
# Disc length: 1077
# 
# Revision: 0
# Processed by: cddbd v1.5.2PL0 Copyright (c) Steve Scherf et al.
# Submitted via: fre:ac v1.0.27
# 
DISCID=3d043305
DTITLE=Verano - Verano
DYEAR=0
DGENRE=
TTITLE0=Cielo su Milano
TTITLE1=Nevada
TTITLE2=Ginger E Fred
TTITLE3=Vivere Di Noia Basterà
TTITLE4=Non Esisti Mai
EXTD=
EXTT0=
EXTT1=
EXTT2=
EXTT3=
EXTT4=
PLAYORDER=
